<?xml version="1.0" encoding="utf-8"?>
<!-- Generator: Adobe Illustrator 23.1.0, SVG Export Plug-In . SVG Version: 6.00 Build 0)  -->
<svg version="1.1" id="Слой_1" xmlns="http://www.w3.org/2000/svg" xmlns:xlink="http://www.w3.org/1999/xlink" x="0px" y="0px"
	 viewBox="0 0 24 24" style="enable-background:new 0 0 24 24;" xml:space="preserve">
<style type="text/css">
	.st0{fill:#525C62;}
</style>
<path class="st0" d="M21.6,6.9c0.1-0.5,0-0.8-0.7-0.8h-2.2c-0.6,0-0.8,0.3-1,0.6c0,0-1.1,2.7-2.7,4.5c-0.5,0.5-0.7,0.7-1,0.7
	c-0.1,0-0.3-0.2-0.3-0.6V6.9c0-0.6-0.2-0.8-0.6-0.8H9.6C9.3,6,9.1,6.3,9.1,6.6c0,0.5,0.8,0.7,0.9,2.1v3.2c0,0.7-0.1,0.8-0.4,0.8
	C8.8,12.8,7,10,5.9,6.9C5.7,6.3,5.5,6,4.9,6H2.8C2.1,6,2,6.3,2,6.7c0,0.6,0.7,3.5,3.5,7.3c1.8,2.6,4.4,4,6.7,4
	c1.4,0,1.6-0.3,1.6-0.9v-2c0-0.6,0.1-0.8,0.6-0.8c0.3,0,0.9,0.2,2.2,1.4c1.5,1.5,1.7,2.2,2.6,2.2h2.2c0.6,0,0.9-0.3,0.8-0.9
	c-0.2-0.6-0.9-1.5-1.8-2.6c-0.5-0.6-1.3-1.3-1.5-1.6c-0.3-0.4-0.2-0.6,0-1C18.6,11.9,21.3,8.1,21.6,6.9z"/>
</svg>
